<svg width="30" height="46" viewBox="0 0 30 46" fill="none" xmlns="http://www.w3.org/2000/svg">
<path d="M-11.8906 20.9858C-14.0027 22.3939 -15.5672 24.3745 -17.4712 26.035C-19.8649 28.1225 -22.9201 29.22 -25.2665 31.3056C-26.0684 32.0184 -27.4412 33.3785 -26.861 34.5389C-23.3123 41.6362 -10.2371 39.5448 -4.75968 35.7791C-3.0212 34.5839 -3.55658 33.4782 -2.50083 31.97C-2.15218 31.4719 -4.46521 31.1572 -4.89255 30.7299C-7.03301 28.5894 -7.06438 26.5131 -5.51263 24.5734C-2.49239 20.7981 4.85151 31.2286 4.85151 22.1817C4.85151 19.8201 4.8946 17.3108 6.62315 15.5823C9.1743 13.0311 10.0057 16.4176 12.4253 16.9553C20.271 18.6988 18.0755 9.83784 18.4046 4.24374C18.5696 1.43921 23.0408 1.49676 24.4282 3.13646C27.2935 6.52268 28.1381 8.86008 27.9715 13.1906C27.7025 20.1857 17.8524 21.4908 15.8357 27.5409C13.508 34.524 15.2786 38.2209 19.2018 44.1058" stroke="#59C5F3" stroke-width="3" stroke-linecap="round"/>
</svg>
