<svg width="511" height="795" viewBox="0 0 511 795" fill="none" xmlns="http://www.w3.org/2000/svg">
<g opacity="0.2">
<path d="M127.814 790.028C33.9686 790.028 -9.98866 766.494 -27.6348 752.783C-34.82 747.201 -37.6958 738.287 -37.6958 729.188V616.324C-37.6958 616.324 -11.1148 600.182 36.007 572.903C83.1287 545.624 82.2902 480.336 26.2942 447.201C-78.4489 385.22 -131.408 276.119 -131.408 82.647" stroke="#E0D701" stroke-width="8.67218"/>
<path d="M127.816 790.028C221.662 790.028 265.619 766.494 283.266 752.783C290.45 747.201 293.327 738.287 293.327 729.188V616.324C293.327 616.324 264.529 598.899 219.624 572.903C174.718 546.907 173.34 480.336 229.337 447.201C334.078 385.22 387.039 276.119 387.039 82.647" stroke="#E0D701" stroke-width="8.67218"/>
<path d="M-126.662 161.802H-162.219C-270.698 161.802 -296.422 303.086 -144.247 368.509C-49.9409 409.055 26.295 447.19 26.295 447.19" stroke="#E0D701" stroke-width="8.67218"/>
<path d="M127.812 151.574C270.977 151.574 387.035 118.762 387.035 78.2868C387.035 37.8116 270.977 5 127.812 5C-15.3523 5 -131.41 37.8116 -131.41 78.2868C-131.41 118.762 -15.3523 151.574 127.812 151.574Z" stroke="#E0D701" stroke-width="8.67218"/>
<path d="M-39.166 614.595C-29.0466 622.579 27.2337 652.965 135.147 652.965" stroke="#E0D701" stroke-width="8.67218"/>
<path d="M382.289 161.802H417.847C526.326 161.802 552.05 303.086 399.875 368.509C305.568 409.055 229.332 447.19 229.332 447.19" stroke="#E0D701" stroke-width="8.67218"/>
<path d="M294.798 614.595C284.68 622.579 228.399 652.965 120.486 652.965" stroke="#E0D701" stroke-width="8.67218"/>
</g>
</svg>
