<svg width="66" height="50" viewBox="0 0 66 50" fill="none" xmlns="http://www.w3.org/2000/svg">
<path d="M65.5277 30.5915C63.5729 34.639 60.8401 38.2618 57.4853 41.2532C54.1304 44.2446 50.2192 46.5459 45.975 48.0257C41.7307 49.5055 37.2366 50.1349 32.7491 49.8779C28.2617 49.6209 23.8688 48.4825 19.8213 46.5277C15.7737 44.573 12.1509 41.8402 9.15949 38.4853C6.16812 35.1305 3.86682 31.2193 2.387 26.9751C0.907178 22.7308 0.277812 18.2367 0.534833 13.7492C0.791854 9.26176 1.93023 4.86886 3.88496 0.821343L29.2685 13.0802C28.9237 13.7943 28.7228 14.5694 28.6775 15.3611C28.6321 16.1528 28.7432 16.9457 29.0043 17.6945C29.2653 18.4433 29.6713 19.1334 30.1991 19.7253C30.7269 20.3172 31.3661 20.7993 32.0802 21.1442C32.7943 21.4891 33.5693 21.6899 34.361 21.7352C35.1527 21.7806 35.9456 21.6695 36.6944 21.4085C37.4432 21.1474 38.1333 20.7414 38.7252 20.2136C39.3171 19.6858 39.7992 19.0467 40.1441 18.3326L65.5277 30.5915Z" fill="#59C5F3"/>
</svg>
