<svg width="32" height="59" viewBox="0 0 32 59" fill="none" xmlns="http://www.w3.org/2000/svg">
<mask id="path-1-inside-1_113_1702" fill="white">
<path d="M27.9951 58.8351C24.1874 58.5929 20.4647 57.603 17.0395 55.9221C13.6144 54.2411 10.5538 51.902 8.03268 49.0382C5.51152 46.1745 3.5791 42.8422 2.34576 39.2316C1.11242 35.6211 0.60231 31.8029 0.844556 27.9952C1.0868 24.1875 2.07666 20.4648 3.75761 17.0397C5.43856 13.6145 7.77769 10.554 10.6414 8.0328C13.5052 5.51163 16.8375 3.57922 20.4481 2.34588C24.0586 1.11254 27.8768 0.602426 31.6845 0.844673L29.8398 29.8399L27.9951 58.8351Z"/>
</mask>
<path d="M27.9951 58.8351C24.1874 58.5929 20.4647 57.603 17.0395 55.9221C13.6144 54.2411 10.5538 51.902 8.03268 49.0382C5.51152 46.1745 3.5791 42.8422 2.34576 39.2316C1.11242 35.6211 0.60231 31.8029 0.844556 27.9952C1.0868 24.1875 2.07666 20.4648 3.75761 17.0397C5.43856 13.6145 7.77769 10.554 10.6414 8.0328C13.5052 5.51163 16.8375 3.57922 20.4481 2.34588C24.0586 1.11254 27.8768 0.602426 31.6845 0.844673L29.8398 29.8399L27.9951 58.8351Z" stroke="#FEF506" stroke-width="2" mask="url(#path-1-inside-1_113_1702)"/>
</svg>
