<svg width="456" height="146" viewBox="0 0 456 146" fill="none" xmlns="http://www.w3.org/2000/svg">
<g filter="url(#filter0_d_100_925)">
<rect width="41.4442" height="45.3296" transform="translate(34 50.2871) rotate(-4.36666)" fill="#FEFAF6"/>
<g filter="url(#filter1_i_100_925)">
<path d="M54.4878 78.9843L54.802 83.2325C54.8246 83.5284 54.7613 83.8072 54.6122 84.0689C54.403 84.4299 54.0731 84.6276 53.6224 84.662C53.0911 84.7026 52.6576 84.5192 52.3221 84.1119C52.061 83.7935 51.9158 83.4427 51.8866 83.0593C51.7726 81.5662 51.6483 79.3195 51.514 76.3193C51.3796 73.3191 51.2554 71.0724 51.1414 69.5792C51.1126 69.2026 51.2225 68.8695 51.471 68.5799C51.7194 68.2903 52.0455 68.1301 52.449 68.0993C52.8526 68.0685 53.1958 68.1776 53.4786 68.4266C53.7682 68.6751 53.9274 68.9876 53.9561 69.3643C54.0024 69.9696 54.0345 70.7891 54.0526 71.8228C54.07 73.0257 54.0887 73.8462 54.1086 74.2844C54.5455 73.8046 56.1481 71.8015 58.9164 68.2752C59.2001 67.9153 59.5437 67.7199 59.9473 67.6891C60.3306 67.6598 60.6739 67.7689 60.9769 68.0164C61.2866 68.2633 61.4562 68.5785 61.4854 68.9619C61.5173 69.3789 60.7996 70.5229 59.3324 72.3938C58.2467 73.7689 57.0958 75.132 55.8798 76.4831C56.6658 77.1199 57.4552 77.7564 58.248 78.3927C59.1695 79.1206 59.9928 79.714 60.7179 80.1728C61.0799 80.3954 61.4642 80.5555 61.8708 80.653C62.6079 80.8267 63.0014 81.2398 63.0512 81.8922C63.0733 82.1814 63.0038 82.4675 62.8428 82.7504C62.6216 83.1326 62.2891 83.3406 61.8452 83.3745C60.8834 83.448 59.5877 82.9144 57.9582 81.7737C57.4721 81.432 56.3153 80.5022 54.4878 78.9843Z" fill="#EB8733"/>
</g>
</g>
<g filter="url(#filter2_d_100_925)">
<rect width="41.4442" height="45.3296" transform="translate(103.725 61.8486) rotate(-4.36666)" fill="#FEFAF6"/>
<g filter="url(#filter3_i_100_925)">
<path d="M133.005 92.0761C132.473 92.0965 131.89 91.5119 131.258 90.3221C130.841 89.5557 130.465 88.6643 130.13 87.648C129.638 87.76 128.83 87.8962 127.706 88.0564C126.649 88.2116 125.842 88.3611 125.284 88.5052C125.032 89.2687 124.578 90.4229 123.925 91.9678C123.666 92.4747 123.274 92.7482 122.75 92.7882C122.38 92.8165 122.037 92.7175 121.723 92.4912C121.407 92.2582 121.234 91.9467 121.205 91.5566C121.178 91.2136 121.581 90.0125 122.411 87.9534C122.301 87.7521 122.246 87.5601 122.245 87.3775C122.248 87.0526 122.555 86.7754 123.166 86.5461C123.995 84.8186 124.927 83.0223 125.961 81.1573C127.448 78.4798 128.387 77.1261 128.777 77.0964C129.517 77.0399 130.045 77.4494 130.362 78.3249C130.552 79.0343 130.846 80.0977 131.245 81.5149C131.803 83.4206 132.474 85.5986 133.256 88.0487C133.318 88.2334 133.523 88.6642 133.872 89.3411C134.159 89.901 134.313 90.3256 134.335 90.6148C134.365 91.0049 134.242 91.3424 133.966 91.6274C133.696 91.9117 133.376 92.0613 133.005 92.0761ZM128.452 82.0123C127.996 82.9537 127.367 84.2364 126.564 85.8604C126.862 85.77 127.328 85.6803 127.964 85.5911C128.714 85.4865 129.185 85.4133 129.378 85.3715C129.15 84.5095 128.841 83.3898 128.452 82.0123Z" fill="#EB8733"/>
</g>
</g>
<g filter="url(#filter4_d_100_925)">
<rect width="41.4442" height="45.3296" transform="translate(377.495 40.9432) rotate(-4.36666)" fill="#FEFAF6"/>
<g filter="url(#filter5_i_100_925)">
<path d="M404.421 77.1455C403.944 77.182 403.226 77.2198 402.269 77.2591C401.311 77.2984 400.593 77.3363 400.116 77.3728L395.626 77.7156C395.472 77.7274 395.241 77.762 394.934 77.8192C394.627 77.8765 394.4 77.9108 394.252 77.9221L394.109 76.0556C394.782 76.0043 395.79 75.9205 397.134 75.8043C398.479 75.6949 399.488 75.6145 400.16 75.5631C400.638 75.5267 401.349 75.4893 402.293 75.451C403.244 75.4189 403.959 75.3847 404.436 75.3482L407.81 75.0094L407.952 76.8759L404.421 77.1455Z" fill="#EB8733"/>
</g>
</g>
<g filter="url(#filter6_d_100_925)">
<rect width="41.4442" height="45.3296" transform="translate(172.449 43.5165) rotate(-4.36666)" fill="#FEFAF6"/>
<g filter="url(#filter7_i_100_925)">
<path d="M199.375 79.7183C198.898 79.7547 198.18 79.7926 197.223 79.8319C196.265 79.8712 195.547 79.9091 195.07 79.9456L190.58 80.2884C190.426 80.3002 190.195 80.3347 189.888 80.392C189.581 80.4492 189.354 80.4835 189.206 80.4948L189.063 78.6284C189.736 78.577 190.744 78.4932 192.088 78.3771C193.433 78.2676 194.442 78.1872 195.114 78.1359C195.592 78.0994 196.303 78.062 197.247 78.0238C198.198 77.9917 198.913 77.9574 199.39 77.921L202.764 77.5822L202.907 79.4486L199.375 79.7183Z" fill="#EB8733"/>
</g>
</g>
<g filter="url(#filter8_d_100_925)">
<rect width="41.4442" height="45.3296" transform="translate(241.877 53.8091) rotate(-4.36666)" fill="#FEFAF6"/>
<g filter="url(#filter9_i_100_925)">
<path d="M271.355 86.6196C270.822 86.64 270.24 86.0553 269.608 84.8656C269.191 84.0991 268.815 83.2078 268.48 82.1915C267.988 82.3035 267.18 82.4396 266.055 82.5999C264.998 82.755 264.191 82.9046 263.634 83.0486C263.381 83.8121 262.928 84.9663 262.275 86.5113C262.016 87.0182 261.624 87.2916 261.099 87.3317C260.73 87.3599 260.387 87.2609 260.072 87.0347C259.757 86.8017 259.584 86.4901 259.554 86.1C259.528 85.757 259.93 84.5559 260.761 82.4968C260.651 82.2955 260.595 82.1035 260.595 81.9209C260.597 81.596 260.904 81.3189 261.516 81.0895C262.345 79.362 263.276 77.5658 264.311 75.7008C265.798 73.0233 266.736 71.6696 267.126 71.6398C267.866 71.5833 268.395 71.9928 268.712 72.8684C268.901 73.5778 269.196 74.6411 269.595 76.0584C270.153 77.9641 270.823 80.142 271.606 82.5921C271.667 82.7769 271.873 83.2077 272.222 83.8846C272.508 84.4445 272.662 84.8691 272.684 85.1583C272.714 85.5484 272.591 85.8859 272.315 86.1708C272.046 86.4552 271.726 86.6048 271.355 86.6196ZM266.802 76.5558C266.346 77.4971 265.716 78.7798 264.914 80.4039C265.211 80.3135 265.678 80.2237 266.314 80.1346C267.063 80.03 267.535 79.9568 267.728 79.915C267.5 79.0529 267.191 77.9332 266.802 76.5558Z" fill="#EB8733"/>
</g>
</g>
<g filter="url(#filter10_d_100_925)">
<rect width="41.4442" height="45.3296" transform="translate(307.968 31.9645) rotate(-4.36666)" fill="#FEFAF6"/>
<g filter="url(#filter11_i_100_925)">
<path d="M336.963 52.3407C336.439 52.3808 335.619 52.4062 334.503 52.417C333.428 52.4246 332.608 52.4534 332.044 52.5033C332.129 53.268 332.324 54.6264 332.629 56.5785C332.903 58.303 333.078 59.6697 333.155 60.6786C333.173 60.9073 333.222 61.2452 333.304 61.6922C333.385 62.1392 333.435 62.4771 333.452 62.7058C333.491 63.2102 333.418 63.6724 333.233 64.0924C332.997 64.6314 332.623 64.9204 332.112 64.9594C331.742 64.9876 331.407 64.8949 331.107 64.681C330.77 64.4428 330.587 64.1253 330.557 63.7285C330.55 63.6344 330.556 63.4918 330.575 63.3009C330.594 63.1033 330.599 62.9541 330.592 62.8532C330.568 62.5438 330.509 62.0781 330.414 61.4562C330.326 60.8338 330.27 60.3645 330.245 60.0484C330.177 59.1471 330.013 57.9318 329.754 56.4023C329.457 54.6457 329.27 53.4322 329.192 52.7616L328.667 52.8017C327.167 52.9162 325.969 52.8995 325.071 52.7516C324.311 52.627 323.904 52.215 323.85 51.5155C323.824 51.1724 323.922 50.8538 324.143 50.5595C324.4 50.2084 324.759 50.0322 325.218 50.0309C325.455 50.0264 325.994 50.0427 326.836 50.0799C327.507 50.1031 328.048 50.099 328.458 50.0676C328.869 50.0363 329.48 49.9828 330.293 49.9072C331.113 49.8311 331.727 49.7774 332.138 49.7461C332.649 49.7071 333.418 49.6855 334.446 49.6814C335.474 49.6706 336.243 49.6457 336.754 49.6067C337.158 49.5758 337.504 49.6813 337.793 49.9231C338.089 50.1643 338.252 50.4766 338.281 50.86C338.31 51.2434 338.197 51.5801 337.942 51.8702C337.693 52.1531 337.367 52.3099 336.963 52.3407Z" fill="#EB8733"/>
</g>
</g>
<defs>
<filter id="filter0_d_100_925" x="0.32658" y="18.6387" width="112.122" height="115.7" filterUnits="userSpaceOnUse" color-interpolation-filters="sRGB">
<feFlood flood-opacity="0" result="BackgroundImageFix"/>
<feColorMatrix in="SourceAlpha" type="matrix" values="0 0 0 0 0 0 0 0 0 0 0 0 0 0 0 0 0 0 127 0" result="hardAlpha"/>
<feOffset dy="5.18053"/>
<feGaussianBlur stdDeviation="16.8367"/>
<feComposite in2="hardAlpha" operator="out"/>
<feColorMatrix type="matrix" values="0 0 0 0 0 0 0 0 0 0 0 0 0 0 0 0 0 0 0.1 0"/>
<feBlend mode="normal" in2="BackgroundImageFix" result="effect1_dropShadow_100_925"/>
<feBlend mode="normal" in="SourceGraphic" in2="effect1_dropShadow_100_925" result="shape"/>
</filter>
<filter id="filter1_i_100_925" x="50.7539" y="67.3743" width="12.4531" height="22.5907" filterUnits="userSpaceOnUse" color-interpolation-filters="sRGB">
<feFlood flood-opacity="0" result="BackgroundImageFix"/>
<feBlend mode="normal" in="SourceGraphic" in2="BackgroundImageFix" result="shape"/>
<feColorMatrix in="SourceAlpha" type="matrix" values="0 0 0 0 0 0 0 0 0 0 0 0 0 0 0 0 0 0 127 0" result="hardAlpha"/>
<feOffset dy="5.18053"/>
<feGaussianBlur stdDeviation="2.59026"/>
<feComposite in2="hardAlpha" operator="arithmetic" k2="-1" k3="1"/>
<feColorMatrix type="matrix" values="0 0 0 0 0 0 0 0 0 0 0 0 0 0 0 0 0 0 0.25 0"/>
<feBlend mode="normal" in2="shape" result="effect1_innerShadow_100_925"/>
</filter>
<filter id="filter2_d_100_925" x="70.0512" y="30.2002" width="112.122" height="115.7" filterUnits="userSpaceOnUse" color-interpolation-filters="sRGB">
<feFlood flood-opacity="0" result="BackgroundImageFix"/>
<feColorMatrix in="SourceAlpha" type="matrix" values="0 0 0 0 0 0 0 0 0 0 0 0 0 0 0 0 0 0 127 0" result="hardAlpha"/>
<feOffset dy="5.18053"/>
<feGaussianBlur stdDeviation="16.8367"/>
<feComposite in2="hardAlpha" operator="out"/>
<feColorMatrix type="matrix" values="0 0 0 0 0 0 0 0 0 0 0 0 0 0 0 0 0 0 0.1 0"/>
<feBlend mode="normal" in2="BackgroundImageFix" result="effect1_dropShadow_100_925"/>
<feBlend mode="normal" in="SourceGraphic" in2="effect1_dropShadow_100_925" result="shape"/>
</filter>
<filter id="filter3_i_100_925" x="120.15" y="76.7527" width="14.2891" height="21.4171" filterUnits="userSpaceOnUse" color-interpolation-filters="sRGB">
<feFlood flood-opacity="0" result="BackgroundImageFix"/>
<feBlend mode="normal" in="SourceGraphic" in2="BackgroundImageFix" result="shape"/>
<feColorMatrix in="SourceAlpha" type="matrix" values="0 0 0 0 0 0 0 0 0 0 0 0 0 0 0 0 0 0 127 0" result="hardAlpha"/>
<feOffset dy="5.18053"/>
<feGaussianBlur stdDeviation="2.59026"/>
<feComposite in2="hardAlpha" operator="arithmetic" k2="-1" k3="1"/>
<feColorMatrix type="matrix" values="0 0 0 0 0 0 0 0 0 0 0 0 0 0 0 0 0 0 0.25 0"/>
<feBlend mode="normal" in2="shape" result="effect1_innerShadow_100_925"/>
</filter>
<filter id="filter4_d_100_925" x="343.822" y="9.29483" width="112.122" height="115.7" filterUnits="userSpaceOnUse" color-interpolation-filters="sRGB">
<feFlood flood-opacity="0" result="BackgroundImageFix"/>
<feColorMatrix in="SourceAlpha" type="matrix" values="0 0 0 0 0 0 0 0 0 0 0 0 0 0 0 0 0 0 127 0" result="hardAlpha"/>
<feOffset dy="5.18053"/>
<feGaussianBlur stdDeviation="16.8367"/>
<feComposite in2="hardAlpha" operator="out"/>
<feColorMatrix type="matrix" values="0 0 0 0 0 0 0 0 0 0 0 0 0 0 0 0 0 0 0.1 0"/>
<feBlend mode="normal" in2="BackgroundImageFix" result="effect1_dropShadow_100_925"/>
<feBlend mode="normal" in="SourceGraphic" in2="effect1_dropShadow_100_925" result="shape"/>
</filter>
<filter id="filter5_i_100_925" x="394.106" y="74.9792" width="13.8457" height="8.1234" filterUnits="userSpaceOnUse" color-interpolation-filters="sRGB">
<feFlood flood-opacity="0" result="BackgroundImageFix"/>
<feBlend mode="normal" in="SourceGraphic" in2="BackgroundImageFix" result="shape"/>
<feColorMatrix in="SourceAlpha" type="matrix" values="0 0 0 0 0 0 0 0 0 0 0 0 0 0 0 0 0 0 127 0" result="hardAlpha"/>
<feOffset dy="5.18053"/>
<feGaussianBlur stdDeviation="2.59026"/>
<feComposite in2="hardAlpha" operator="arithmetic" k2="-1" k3="1"/>
<feColorMatrix type="matrix" values="0 0 0 0 0 0 0 0 0 0 0 0 0 0 0 0 0 0 0.25 0"/>
<feBlend mode="normal" in2="shape" result="effect1_innerShadow_100_925"/>
</filter>
<filter id="filter6_d_100_925" x="138.776" y="11.8681" width="112.122" height="115.7" filterUnits="userSpaceOnUse" color-interpolation-filters="sRGB">
<feFlood flood-opacity="0" result="BackgroundImageFix"/>
<feColorMatrix in="SourceAlpha" type="matrix" values="0 0 0 0 0 0 0 0 0 0 0 0 0 0 0 0 0 0 127 0" result="hardAlpha"/>
<feOffset dy="5.18053"/>
<feGaussianBlur stdDeviation="16.8367"/>
<feComposite in2="hardAlpha" operator="out"/>
<feColorMatrix type="matrix" values="0 0 0 0 0 0 0 0 0 0 0 0 0 0 0 0 0 0 0.1 0"/>
<feBlend mode="normal" in2="BackgroundImageFix" result="effect1_dropShadow_100_925"/>
<feBlend mode="normal" in="SourceGraphic" in2="effect1_dropShadow_100_925" result="shape"/>
</filter>
<filter id="filter7_i_100_925" x="189.061" y="77.552" width="13.8457" height="8.1234" filterUnits="userSpaceOnUse" color-interpolation-filters="sRGB">
<feFlood flood-opacity="0" result="BackgroundImageFix"/>
<feBlend mode="normal" in="SourceGraphic" in2="BackgroundImageFix" result="shape"/>
<feColorMatrix in="SourceAlpha" type="matrix" values="0 0 0 0 0 0 0 0 0 0 0 0 0 0 0 0 0 0 127 0" result="hardAlpha"/>
<feOffset dy="5.18053"/>
<feGaussianBlur stdDeviation="2.59026"/>
<feComposite in2="hardAlpha" operator="arithmetic" k2="-1" k3="1"/>
<feColorMatrix type="matrix" values="0 0 0 0 0 0 0 0 0 0 0 0 0 0 0 0 0 0 0.25 0"/>
<feBlend mode="normal" in2="shape" result="effect1_innerShadow_100_925"/>
</filter>
<filter id="filter8_d_100_925" x="208.204" y="22.1607" width="112.122" height="115.7" filterUnits="userSpaceOnUse" color-interpolation-filters="sRGB">
<feFlood flood-opacity="0" result="BackgroundImageFix"/>
<feColorMatrix in="SourceAlpha" type="matrix" values="0 0 0 0 0 0 0 0 0 0 0 0 0 0 0 0 0 0 127 0" result="hardAlpha"/>
<feOffset dy="5.18053"/>
<feGaussianBlur stdDeviation="16.8367"/>
<feComposite in2="hardAlpha" operator="out"/>
<feColorMatrix type="matrix" values="0 0 0 0 0 0 0 0 0 0 0 0 0 0 0 0 0 0 0.1 0"/>
<feBlend mode="normal" in2="BackgroundImageFix" result="effect1_dropShadow_100_925"/>
<feBlend mode="normal" in="SourceGraphic" in2="effect1_dropShadow_100_925" result="shape"/>
</filter>
<filter id="filter9_i_100_925" x="258.5" y="71.2961" width="14.2891" height="21.4171" filterUnits="userSpaceOnUse" color-interpolation-filters="sRGB">
<feFlood flood-opacity="0" result="BackgroundImageFix"/>
<feBlend mode="normal" in="SourceGraphic" in2="BackgroundImageFix" result="shape"/>
<feColorMatrix in="SourceAlpha" type="matrix" values="0 0 0 0 0 0 0 0 0 0 0 0 0 0 0 0 0 0 127 0" result="hardAlpha"/>
<feOffset dy="5.18053"/>
<feGaussianBlur stdDeviation="2.59026"/>
<feComposite in2="hardAlpha" operator="arithmetic" k2="-1" k3="1"/>
<feColorMatrix type="matrix" values="0 0 0 0 0 0 0 0 0 0 0 0 0 0 0 0 0 0 0.25 0"/>
<feBlend mode="normal" in2="shape" result="effect1_innerShadow_100_925"/>
</filter>
<filter id="filter10_d_100_925" x="274.294" y="0.316066" width="112.122" height="115.7" filterUnits="userSpaceOnUse" color-interpolation-filters="sRGB">
<feFlood flood-opacity="0" result="BackgroundImageFix"/>
<feColorMatrix in="SourceAlpha" type="matrix" values="0 0 0 0 0 0 0 0 0 0 0 0 0 0 0 0 0 0 127 0" result="hardAlpha"/>
<feOffset dy="5.18053"/>
<feGaussianBlur stdDeviation="16.8367"/>
<feComposite in2="hardAlpha" operator="out"/>
<feColorMatrix type="matrix" values="0 0 0 0 0 0 0 0 0 0 0 0 0 0 0 0 0 0 0.1 0"/>
<feBlend mode="normal" in2="BackgroundImageFix" result="effect1_dropShadow_100_925"/>
<feBlend mode="normal" in="SourceGraphic" in2="effect1_dropShadow_100_925" result="shape"/>
</filter>
<filter id="filter11_i_100_925" x="323.741" y="48.9937" width="15.5742" height="21.6957" filterUnits="userSpaceOnUse" color-interpolation-filters="sRGB">
<feFlood flood-opacity="0" result="BackgroundImageFix"/>
<feBlend mode="normal" in="SourceGraphic" in2="BackgroundImageFix" result="shape"/>
<feColorMatrix in="SourceAlpha" type="matrix" values="0 0 0 0 0 0 0 0 0 0 0 0 0 0 0 0 0 0 127 0" result="hardAlpha"/>
<feOffset dy="5.18053"/>
<feGaussianBlur stdDeviation="2.59026"/>
<feComposite in2="hardAlpha" operator="arithmetic" k2="-1" k3="1"/>
<feColorMatrix type="matrix" values="0 0 0 0 0 0 0 0 0 0 0 0 0 0 0 0 0 0 0.25 0"/>
<feBlend mode="normal" in2="shape" result="effect1_innerShadow_100_925"/>
</filter>
</defs>
</svg>
