
<svg width="70" height="35" viewBox="0 0 70 35" fill="none" xmlns="http://www.w3.org/2000/svg">
<path d="M59.6369 8.30284C58.6048 7.72226 57.8154 7.30651 56.5818 6.99811C54.9794 6.59752 53.4056 6.69827 51.7599 6.69827C44.9742 6.69827 38.1886 6.69827 31.4029 6.69827C24.0315 6.69827 16.5729 6.35427 9.24673 7.16829C7.95236 7.31211 6.81968 7.81253 5.59997 8.23801C4.94587 8.46619 4.18534 8.82097 3.82521 9.42118C2.5729 11.5084 2.32805 14.2612 1.9532 16.6175C1.54735 19.1685 1.78701 22.2097 1.90458 24.77C1.97489 26.3012 2.14753 28.0016 2.85274 29.3893C3.86402 31.3792 6.37796 32.3312 8.47686 32.5822C11.7303 32.9712 15.0538 32.8091 18.3231 32.8091C23.0018 32.8091 27.6805 32.8091 32.3591 32.8091C36.5947 32.8091 40.8305 32.8201 45.0661 32.8091C48.8309 32.7993 52.3405 32.4479 56.0226 31.7232C59.3319 31.0719 62.8604 30.489 64.9045 27.6145C65.9547 26.1377 66.8481 24.5512 67.1493 22.744C67.6299 19.8604 67.5753 16.8209 67.5059 13.9027C67.4137 10.0316 63.995 7.9609 61.1767 5.9365C58.4564 3.98246 54.6724 3.23448 51.4358 2.58147C47.1755 1.72194 43.2394 1.97685 38.9233 2.32214" stroke="#59C5F3" stroke-width="3" stroke-linecap="round"/>
</svg>
