<svg width="238" height="74" viewBox="0 0 238 74" fill="none" xmlns="http://www.w3.org/2000/svg">
<path d="M0.541665 73.7116C0.347768 74.517 0.843503 75.3271 1.64892 75.521C2.45434 75.7149 3.26444 75.2192 3.45834 74.4138L0.541665 73.7116ZM3.45834 74.4138C4.04127 71.9923 4.86218 69.4382 5.94243 66.7934L3.16517 65.659C2.03078 68.4363 1.162 71.1348 0.541665 73.7116L3.45834 74.4138ZM13.8362 52.6852C16.7592 48.6037 20.2937 44.4901 24.4995 40.4729L22.4273 38.3035C18.0889 42.4474 14.4311 46.7021 11.3971 50.9385L13.8362 52.6852ZM37.1588 30.2092C41.3813 27.2935 46.042 24.5038 51.169 21.901L49.811 19.226C44.5666 21.8884 39.7899 24.7466 35.4542 27.7406L37.1588 30.2092ZM66.1725 15.3694C71.0511 13.5636 76.2562 11.9179 81.8032 10.4654L81.0432 7.56326C75.404 9.03995 70.1048 10.7149 65.1311 12.5559L66.1725 15.3694ZM97.8174 7.00296C102.987 6.10532 108.406 5.36379 114.082 4.79772L113.784 1.81253C108.038 2.38556 102.548 3.13674 97.3042 4.04719L97.8174 7.00296ZM130.53 3.69153C135.798 3.49972 141.26 3.44931 146.922 3.55238L146.976 0.552877C141.262 0.448842 135.745 0.49966 130.42 0.693519L130.53 3.69153ZM163.384 4.25741C168.705 4.6111 174.184 5.0926 179.825 5.71018L180.152 2.72799C174.469 2.10591 168.947 1.62061 163.583 1.26402L163.384 4.25741ZM196.119 7.81205C201.402 8.59326 206.815 9.48782 212.361 10.5015L212.901 7.55037C207.322 6.53076 201.875 5.63064 196.558 4.84433L196.119 7.81205ZM228.525 13.7164C231.209 14.2923 233.922 14.8949 236.664 15.5246L237.336 12.6008C234.58 11.9678 231.853 11.3621 229.155 10.7832L228.525 13.7164Z" fill="#FEF506"/>
</svg>
